<svg width="100" height="101" viewBox="0 0 100 101" fill="none" xmlns="http://www.w3.org/2000/svg">
<circle cx="50" cy="50.5" r="48" stroke="#1A1A1A" stroke-width="4"/>
<path d="M28.1209 32.82V20.1H50.2809V78.5H36.0409V32.82H28.1209Z" fill="#F8635E"/>
<path d="M54.24 42.66C54.24 40.5 54.8533 38.8333 56.08 37.66C57.3333 36.4867 58.9467 35.9 60.92 35.9C62.8933 35.9 64.4933 36.4867 65.72 37.66C66.9467 38.8333 67.56 40.5 67.56 42.66C67.56 44.82 66.9467 46.4867 65.72 47.66C64.4933 48.8333 62.8933 49.42 60.92 49.42C58.9467 49.42 57.3333 48.8333 56.08 47.66C54.8533 46.4867 54.24 44.82 54.24 42.66ZM81.4 36.34L66 64.5H59.4L74.8 36.34H81.4ZM60.88 39.9C59.6 39.9 58.96 40.82 58.96 42.66C58.96 44.4733 59.6 45.38 60.88 45.38C61.4933 45.38 61.9733 45.1533 62.32 44.7C62.6667 44.2467 62.84 43.5667 62.84 42.66C62.84 40.82 62.1867 39.9 60.88 39.9ZM73.28 58.18C73.28 56.02 73.8933 54.3533 75.12 53.18C76.3467 52.0067 77.9467 51.42 79.92 51.42C81.8933 51.42 83.4933 52.0067 84.72 53.18C85.9467 54.3533 86.56 56.02 86.56 58.18C86.56 60.34 85.9467 62.0067 84.72 63.18C83.4933 64.3533 81.8933 64.94 79.92 64.94C77.9467 64.94 76.3467 64.3533 75.12 63.18C73.8933 62.0067 73.28 60.34 73.28 58.18ZM79.88 55.42C79.2667 55.42 78.7867 55.6467 78.44 56.1C78.12 56.5533 77.96 57.2467 77.96 58.18C77.96 59.9933 78.6 60.9 79.88 60.9C80.4933 60.9 80.9733 60.6733 81.32 60.22C81.6667 59.7667 81.84 59.0867 81.84 58.18C81.84 57.2733 81.6667 56.5933 81.32 56.14C80.9733 55.66 80.4933 55.42 79.88 55.42Z" fill="#FA9793"/>
</svg>
