<svg width="100" height="101" viewBox="0 0 100 101" fill="none" xmlns="http://www.w3.org/2000/svg">
<circle cx="50" cy="50.5" r="48" stroke="#1A1A1A" stroke-width="4"/>
<path d="M86.9113 43.4338L86.75 42.6469C86.4142 41.0259 85.1501 39.4915 83.3151 38.4777L78.182 35.6395C76.2186 34.555 72.7813 33.3589 70.5294 33.1937L67.9183 33.0179C66.3222 32.8998 63.8658 33.3903 62.4455 33.7733L33.4695 41.7091L20.6326 44.5707C19.7842 44.7962 13.354 44.2245 12.1749 48.9379C10.3834 56.1 22.5999 64.1367 37.4853 60.8017L83.239 48.4894C85.908 47.7773 87.3886 45.738 86.9113 43.4338Z" fill="#F8635E"/>
<path d="M77.4202 52.7425C73.6051 52.5445 70.8876 55.347 70.7172 58.9721C70.5467 62.5996 72.9887 65.6685 76.8024 65.8665C80.6163 66.0645 83.3336 63.2632 83.5042 59.6357C83.6746 56.0108 81.2339 52.9406 77.4202 52.7425ZM77.9972 61.911C76.9598 61.8559 76.169 60.74 76.2319 59.4167C76.2935 58.0922 77.184 57.0612 78.2227 57.1163C79.2587 57.1689 80.0495 58.2861 79.9879 59.6109C79.925 60.9354 79.0332 61.9636 77.9972 61.911Z" fill="#FA9793"/>
<path d="M37.8215 62.4303C34.0064 62.2322 31.289 65.0348 31.1185 68.6597C30.948 72.2872 33.3899 75.3562 37.2037 75.5541C41.0175 75.7521 43.7349 72.9509 43.9054 69.3232C44.076 65.6985 41.6353 62.6282 37.8215 62.4303ZM38.3986 71.5987C37.3614 71.5437 36.5705 70.4276 36.6335 69.1044C36.6951 67.7799 37.5855 66.7489 38.6242 66.804C39.6603 66.8565 40.451 67.9738 40.3893 69.2983C40.3266 70.6231 39.4347 71.6513 38.3986 71.5987Z" fill="#FA9793"/>
</svg>
