<svg width="40" height="40" viewBox="0 0 40 40" fill="none" xmlns="http://www.w3.org/2000/svg">
<g clip-path="url(#clip0_10_85)">
<path d="M25 20.6667C25 17.9052 22.7614 15.6667 20 15.6667C17.2386 15.6667 15 17.9052 15 20.6667C15 23.4281 17.2386 25.6667 20 25.6667C22.7614 25.6667 25 23.4281 25 20.6667Z" stroke="#F8635E" stroke-width="3.33333"/>
<path d="M31.6667 20.6667C31.6667 14.2233 26.4433 9 20 9C13.5567 9 8.33334 14.2233 8.33334 20.6667C8.33334 27.11 13.5567 32.3333 20 32.3333C26.4433 32.3333 31.6667 27.11 31.6667 20.6667Z" stroke="#FA9793" stroke-width="3.33333"/>
<path d="M1.66666 1.66667H18.3333C29.379 1.66667 38.3333 10.621 38.3333 21.6667V38.3333H20C9.87476 38.3333 1.66666 30.1252 1.66666 20V1.66667Z" stroke="#F8635E" stroke-width="3.33333"/>
<path d="M40 30H0V40H40V30Z" fill="white"/>
</g>
<defs>
<clipPath id="clip0_10_85">
<rect width="40" height="40" fill="white"/>
</clipPath>
</defs>
</svg>
